<?xml version="1.0" encoding="UTF-8" standalone="no"?>
<!-- Created with Inkscape (http://www.inkscape.org/) -->

<svg
   version="1.1"
   id="svg1"
   width="448.78134"
   height="533.33331"
   viewBox="0 0 448.78134 533.33331"
   sodipodi:docname="kompleksen_primer.pdf"
   xmlns:inkscape="http://www.inkscape.org/namespaces/inkscape"
   xmlns:sodipodi="http://sodipodi.sourceforge.net/DTD/sodipodi-0.dtd"
   xmlns="http://www.w3.org/2000/svg"
   xmlns:svg="http://www.w3.org/2000/svg">
  <defs
     id="defs1" />
  <sodipodi:namedview
     id="namedview1"
     pagecolor="#ffffff"
     bordercolor="#000000"
     borderopacity="0.25"
     inkscape:showpageshadow="2"
     inkscape:pageopacity="0.0"
     inkscape:pagecheckerboard="0"
     inkscape:deskcolor="#d1d1d1">
    <inkscape:page
       x="0"
       y="0"
       inkscape:label="1"
       id="page1"
       width="448.78134"
       height="533.33331"
       margin="0"
       bleed="0" />
  </sodipodi:namedview>
  <g
     id="g1"
     inkscape:groupmode="layer"
     inkscape:label="1">
    <g
       id="g23">
      <path
         d="M 494.207,3793.2 V 5"
         style="fill:none;stroke:#7f7f7f;stroke-width:10;stroke-linecap:round;stroke-linejoin:round;stroke-miterlimit:10;stroke-dasharray:none;stroke-opacity:1"
         transform="matrix(0.13333333,0,0,-0.13333333,0,533.332)"
         id="path1" />
      <path
         d="m 494.207,3943.2 -40.191,-150 h 80.386 z"
         style="fill:#7f7f7f;fill-opacity:1;fill-rule:nonzero;stroke:#7f7f7f;stroke-width:10;stroke-linecap:round;stroke-linejoin:round;stroke-miterlimit:10;stroke-dasharray:none;stroke-opacity:1"
         transform="matrix(0.13333333,0,0,-0.13333333,0,533.332)"
         id="path2" />
      <path
         d="M 3208.36,1795.09 H 136.191"
         style="fill:none;stroke:#7f7f7f;stroke-width:10;stroke-linecap:round;stroke-linejoin:round;stroke-miterlimit:10;stroke-dasharray:none;stroke-opacity:1"
         transform="matrix(0.13333333,0,0,-0.13333333,0,533.332)"
         id="path3" />
      <path
         d="m 3358.36,1795.09 -150,40.2 v -80.39 z"
         style="fill:#7f7f7f;fill-opacity:1;fill-rule:nonzero;stroke:#7f7f7f;stroke-width:10;stroke-linecap:round;stroke-linejoin:round;stroke-miterlimit:10;stroke-dasharray:none;stroke-opacity:1"
         transform="matrix(0.13333333,0,0,-0.13333333,0,533.332)"
         id="path4" />
      <path
         d="M 494.207,5 V 3943.2"
         style="fill:none;stroke:#7f7f7f;stroke-width:3;stroke-linecap:round;stroke-linejoin:round;stroke-miterlimit:10;stroke-dasharray:none;stroke-opacity:1"
         transform="matrix(0.13333333,0,0,-0.13333333,0,533.332)"
         id="path5" />
      <path
         d="M 1210.25,5 V 3943.2"
         style="fill:none;stroke:#7f7f7f;stroke-width:3;stroke-linecap:round;stroke-linejoin:round;stroke-miterlimit:10;stroke-dasharray:none;stroke-opacity:1"
         transform="matrix(0.13333333,0,0,-0.13333333,0,533.332)"
         id="path6" />
      <path
         d="M 1926.28,5 V 3943.2"
         style="fill:none;stroke:#7f7f7f;stroke-width:3;stroke-linecap:round;stroke-linejoin:round;stroke-miterlimit:10;stroke-dasharray:none;stroke-opacity:1"
         transform="matrix(0.13333333,0,0,-0.13333333,0,533.332)"
         id="path7" />
      <path
         d="M 2642.32,5 V 3943.2"
         style="fill:none;stroke:#7f7f7f;stroke-width:3;stroke-linecap:round;stroke-linejoin:round;stroke-miterlimit:10;stroke-dasharray:none;stroke-opacity:1"
         transform="matrix(0.13333333,0,0,-0.13333333,0,533.332)"
         id="path8" />
      <path
         d="M 3358.36,5 V 3943.2"
         style="fill:none;stroke:#7f7f7f;stroke-width:3;stroke-linecap:round;stroke-linejoin:round;stroke-miterlimit:10;stroke-dasharray:none;stroke-opacity:1"
         transform="matrix(0.13333333,0,0,-0.13333333,0,533.332)"
         id="path9" />
      <path
         d="M 136.191,363.02 H 3358.36"
         style="fill:none;stroke:#7f7f7f;stroke-width:3;stroke-linecap:round;stroke-linejoin:round;stroke-miterlimit:10;stroke-dasharray:none;stroke-opacity:1"
         transform="matrix(0.13333333,0,0,-0.13333333,0,533.332)"
         id="path10" />
      <path
         d="M 136.191,1079.05 H 3358.36"
         style="fill:none;stroke:#7f7f7f;stroke-width:3;stroke-linecap:round;stroke-linejoin:round;stroke-miterlimit:10;stroke-dasharray:none;stroke-opacity:1"
         transform="matrix(0.13333333,0,0,-0.13333333,0,533.332)"
         id="path11" />
      <path
         d="M 136.191,1795.09 H 3358.36"
         style="fill:none;stroke:#7f7f7f;stroke-width:3;stroke-linecap:round;stroke-linejoin:round;stroke-miterlimit:10;stroke-dasharray:none;stroke-opacity:1"
         transform="matrix(0.13333333,0,0,-0.13333333,0,533.332)"
         id="path12" />
      <path
         d="M 136.191,2511.13 H 3358.36"
         style="fill:none;stroke:#7f7f7f;stroke-width:3;stroke-linecap:round;stroke-linejoin:round;stroke-miterlimit:10;stroke-dasharray:none;stroke-opacity:1"
         transform="matrix(0.13333333,0,0,-0.13333333,0,533.332)"
         id="path13" />
      <path
         d="M 136.191,3227.16 H 3358.36"
         style="fill:none;stroke:#7f7f7f;stroke-width:3;stroke-linecap:round;stroke-linejoin:round;stroke-miterlimit:10;stroke-dasharray:none;stroke-opacity:1"
         transform="matrix(0.13333333,0,0,-0.13333333,0,533.332)"
         id="path14" />
      <path
         d="M 136.191,3943.2 H 3358.36"
         style="fill:none;stroke:#7f7f7f;stroke-width:3;stroke-linecap:round;stroke-linejoin:round;stroke-miterlimit:10;stroke-dasharray:none;stroke-opacity:1"
         transform="matrix(0.13333333,0,0,-0.13333333,0,533.332)"
         id="path15" />
      <path
         d="m 494.207,3943.2 28.645,-113.42 28.64,-111.13 28.641,-108.83 28.64,-106.55 28.645,-104.25 28.641,-101.97 28.64,-99.67 28.641,-97.38 28.64,-95.09 28.645,-92.8 28.641,-90.51 28.64,-88.21 28.641,-85.93 28.641,-83.63 28.644,-81.34 28.641,-79.05 28.64,-76.76 28.637,-74.47 28.65,-72.18 28.64,-69.88 28.64,-67.6 28.64,-65.3 28.64,-63.01 28.65,-60.72 28.64,-58.43 28.64,-56.14 28.64,-53.84 28.64,-51.56 28.64,-49.26 28.64,-46.97 28.64,-44.68 28.64,-42.39 28.65,-40.1 28.64,-37.81 28.64,-35.51 28.64,-33.22 28.64,-30.94 28.65,-28.64 28.64,-26.35 28.64,-24.06 28.64,-21.77 28.64,-19.47 28.64,-17.19 28.64,-14.89 28.64,-12.6 28.64,-10.31 28.65,-8.02 28.64,-5.73 28.64,-3.44 28.64,-1.15 28.64,1.15 28.65,3.44 28.64,5.73 28.64,8.02 28.64,10.31 28.64,12.6 28.64,14.89 28.64,17.19 28.64,19.47 28.65,21.77 28.64,24.06 28.64,26.35 28.64,28.64 28.64,30.94 28.65,33.22 28.64,35.51 28.64,37.81 28.64,40.1 28.64,42.39 28.64,44.68 28.64,46.97 28.64,49.26 28.65,51.56 28.64,53.84 28.64,56.14 28.64,58.43 28.64,60.72 28.64,63.01 28.65,65.3 28.64,67.6 28.64,69.88 28.64,72.18 28.64,74.47 28.64,76.76 28.64,79.05 28.65,81.34 28.64,83.63 28.64,85.93 28.64,88.21 28.64,90.51 28.64,92.8 28.64,95.09 28.64,97.38 28.65,99.67 28.64,101.97 28.64,104.25 28.64,106.55 28.64,108.83 28.64,111.13 28.65,113.42"
         style="fill:none;stroke:#0000ff;stroke-width:15;stroke-linecap:round;stroke-linejoin:round;stroke-miterlimit:10;stroke-dasharray:none;stroke-opacity:1"
         transform="matrix(0.13333333,0,0,-0.13333333,0,533.332)"
         id="path16" />
      <path
         d="m 1210.25,1795.09 v 0"
         style="fill:none;stroke:#ff0000;stroke-width:50;stroke-linecap:round;stroke-linejoin:round;stroke-miterlimit:10;stroke-dasharray:none;stroke-opacity:1"
         transform="matrix(0.13333333,0,0,-0.13333333,0,533.332)"
         id="path17" />
      <path
         d="m 2642.32,1795.09 v 0"
         style="fill:none;stroke:#7f00ff;stroke-width:50;stroke-linecap:round;stroke-linejoin:round;stroke-miterlimit:10;stroke-dasharray:none;stroke-opacity:1"
         transform="matrix(0.13333333,0,0,-0.13333333,0,533.332)"
         id="path18" />
      <path
         d="m 1210.25,1795.09 14.32,-28.35 14.32,-27.79 14.32,-27.2 14.32,-26.64 14.32,-26.07 14.32,-25.49 14.32,-24.91 14.32,-24.35 14.32,-23.77 14.32,-23.2 14.32,-22.63 14.32,-22.05 14.32,-21.48 14.32,-20.91 14.32,-20.34 14.33,-19.76 14.32,-19.19 14.32,-18.62 14.32,-18.04 14.32,-17.47 14.32,-16.9 14.32,-16.32 14.32,-15.76 14.32,-15.18 14.33,-14.61 14.32,-14.03 14.32,-13.46 14.32,-12.89 14.32,-12.32 14.32,-11.74 14.32,-11.17 14.32,-10.6 14.32,-10.02 14.32,-9.45 14.32,-8.88 14.32,-8.31 14.32,-7.73 14.32,-7.16 14.32,-6.59 14.32,-6.01 14.32,-5.45 14.32,-4.86 14.33,-4.3 14.32,-3.72 14.32,-3.16 14.32,-2.57 14.32,-2.01 14.32,-1.43 14.32,-0.86 14.32,-0.29 14.32,0.29 14.32,0.86 14.33,1.43 14.32,2.01 14.32,2.57 14.32,3.16 14.32,3.72 14.32,4.3 14.32,4.86 14.32,5.45 14.32,6.01 14.32,6.59 14.32,7.16 14.32,7.73 14.32,8.31 14.32,8.88 14.32,9.45 14.32,10.02 14.33,10.6 14.32,11.17 14.32,11.74 14.32,12.32 14.32,12.89 14.32,13.46 14.32,14.03 14.32,14.61 14.32,15.18 14.32,15.76 14.32,16.32 14.33,16.9 14.32,17.47 14.32,18.04 14.32,18.62 14.32,19.19 14.32,19.76 14.32,20.34 14.32,20.91 14.32,21.48 14.32,22.05 14.32,22.63 14.32,23.2 14.32,23.77 14.32,24.35 14.32,24.91 14.32,25.49 14.33,26.07 14.32,26.64 14.32,27.2 14.32,27.79 14.32,28.35 v 0 H 1210.25 v 0"
         style="fill:#7f7fff;fill-opacity:0.3;fill-rule:nonzero;stroke:none"
         transform="matrix(0.13333333,0,0,-0.13333333,0,533.332)"
         id="path19" />
      <path
         d="m 1926.28,1079.05 v 0"
         style="fill:none;stroke:#000040;stroke-width:50;stroke-linecap:round;stroke-linejoin:round;stroke-miterlimit:10;stroke-dasharray:none;stroke-opacity:1"
         transform="matrix(0.13333333,0,0,-0.13333333,0,533.332)"
         id="path20" />
      <path
         d="M 1926.28,1795.09 V 1079.05"
         style="fill:none;stroke:#000040;stroke-width:5;stroke-linecap:round;stroke-linejoin:round;stroke-miterlimit:10;stroke-dasharray:42.1198, 42.1198;stroke-dashoffset:0;stroke-opacity:1"
         transform="matrix(0.13333333,0,0,-0.13333333,0,533.332)"
         id="path21" />
      <path
         d="m 494.207,3943.2 v 0"
         style="fill:none;stroke:#ff00ff;stroke-width:50;stroke-linecap:round;stroke-linejoin:round;stroke-miterlimit:10;stroke-dasharray:none;stroke-opacity:1"
         transform="matrix(0.13333333,0,0,-0.13333333,0,533.332)"
         id="path22" />
      <path
         d="m 1568.27,1651.88 h 214.8"
         style="fill:none;stroke:#0000ff;stroke-width:15;stroke-linecap:round;stroke-linejoin:round;stroke-miterlimit:10;stroke-dasharray:none;stroke-opacity:1"
         transform="matrix(0.13333333,0,0,-0.13333333,0,533.332)"
         id="path23" />
    </g>
    <path
       id="path24"
       d="m 5.6830469,-4.6520781 c 0.011719,-0.058594 0.035156,-0.1289063 0.035156,-0.1992188 0,-0.1757812 -0.1523437,-0.3046875 -0.328125,-0.3046875 -0.1054687,0 -0.3632812,0.046875 -0.4570312,0.4101563 l -0.8789063,3.515625 c -0.058594,0.2109375 -0.058594,0.23437498 -0.1523437,0.37499998 -0.2460938,0.328125 -0.6445313,0.73828125 -1.2070313,0.73828125 -0.6796875,0 -0.7382812,-0.65625 -0.7382812,-0.98437503 0,-0.6796875 0.328125,-1.6054687 0.6445312,-2.4609375 0.140625,-0.3515625 0.2109375,-0.515625 0.2109375,-0.75 0,-0.5039062 -0.3632812,-0.9609375 -0.9492187,-0.9609375 -1.10156252,0 -1.53515627,1.734375 -1.53515627,1.828125 0,0.046875 0.046875,0.1054688 0.12890625,0.1054688 0.10546875,0 0.1171875,-0.046875 0.1640625,-0.2109375 0.29296875,-1.0078125 0.73828122,-1.4765625 1.20703122,-1.4765625 0.1054688,0 0.3164063,0 0.3164063,0.3867187 0,0.3164063 -0.140625,0.65625 -0.3164063,1.1132813 -0.5859375,1.5703125 -0.5859375,1.9570312 -0.5859375,2.25 0,1.13671873 0.8085938,1.39453123 1.40625,1.39453123 0.3515625,0 0.7851563,-0.10546875 1.1953125,-0.55078125 l 0.011719,0.0117188 C 3.6791406,0.28151563 3.5619531,0.75026563 3.1400781,1.3362031 2.8236719,1.7932344 2.3549219,2.2033906 1.7689844,2.2033906 c -0.140625,0 -0.7148438,-0.023437 -0.90234377,-0.5742187 0.046875,0.011719 0.12890625,0.011719 0.12890625,0.011719 0.35156252,0 0.59765622,-0.3164062 0.59765622,-0.5859375 0,-0.28124997 -0.234375,-0.37499997 -0.4101562,-0.37499997 -0.18750002,0 -0.60937502,0.140625 -0.60937502,0.72656247 0,0.609375 0.51562502,1.03125 1.19531252,1.03125 1.1953125,0 2.4023437,-1.1015625 2.7421875,-2.42578122 z m 0,0"
       style="fill:#808080;fill-opacity:1;fill-rule:nonzero;stroke:none"
       aria-label="y"
       transform="matrix(1.3333333,0,0,1.3333333,52.586667,16.429333)" />
    <path
       id="path25"
       d="m 5.7415937,-1.7105859 c 0,-0.058594 -0.046875,-0.1054688 -0.1289062,-0.1054688 -0.1054688,0 -0.1171875,0.058594 -0.1523438,0.1523438 -0.3164062,1.05468746 -1.0195312,1.54687496 -1.546875,1.54687496 -0.421875,0 -0.65625,-0.31640625 -0.65625,-0.80859375 0,-0.25781251 0.058594,-0.44531251 0.2460938,-1.24218751 l 0.421875,-1.6171875 c 0.1757812,-0.7265625 0.5859375,-1.2421875 1.125,-1.2421875 0,0 0.3632812,0 0.609375,0.1523438 -0.375,0.070312 -0.515625,0.3515625 -0.515625,0.5859375 0,0.28125 0.2226562,0.375 0.3867187,0.375 0.3632813,0 0.609375,-0.3046875 0.609375,-0.6328125 0,-0.4921875 -0.5742187,-0.7265625 -1.078125,-0.7265625 -0.7265625,0 -1.125,0.7148437 -1.2421875,0.9492187 C 3.5501875,-5.2262109 2.8119062,-5.2730859 2.58925,-5.2730859 c -1.21875,0 -1.86328125,1.5703125 -1.86328125,1.828125 0,0.046875 0.046875,0.1054687 0.12890625,0.1054687 0.10546875,0 0.12890625,-0.070312 0.1523437,-0.1171875 0.3984375,-1.3242187 1.2070313,-1.5703125 1.546875,-1.5703125 0.5390625,0 0.6445313,0.4921875 0.6445313,0.7851563 0,0.2578125 -0.070312,0.5390625 -0.2109375,1.1132812 L 2.5775312,-1.4996484 C 2.40175,-0.77308594 2.0501875,-0.11683594 1.417375,-0.11683594 c -0.058594,0 -0.3515625,0 -0.609375,-0.15234375 0.4335937,-0.09375 0.5273437,-0.4453125 0.5273437,-0.5859375 0,-0.24609371 -0.1757812,-0.38671871 -0.39843745,-0.38671871 -0.29296875,0 -0.59765625,0.24609371 -0.59765625,0.63281246 0,0.50390625 0.5625,0.7265625 1.0664062,0.7265625 0.5742188,0 0.984375,-0.45703125 1.2304688,-0.9375 0.1992187,0.703125 0.796875,0.9375 1.2304687,0.9375 1.2304688,0 1.875,-1.55859376 1.875,-1.82812496 z m 0,0"
       style="fill:#808080;fill-opacity:1;fill-rule:nonzero;stroke:none"
       aria-label="x"
       transform="matrix(1.3333333,0,0,1.3333333,436.92267,305.98)" />
    <g
       id="g25"
       aria-label="x&#10;1&#10;=1"
       transform="matrix(1.3333333,0,0,1.3333333,143.85733,305.232)">
      <path
         id="path26"
         d="m 4.5571953,-1.2784922 c 0,-0.046875 -0.023437,-0.1171875 -0.1171875,-0.1171875 -0.09375,0 -0.1054687,0.035156 -0.1523437,0.1757813 -0.1875,0.64453121 -0.7148438,1.08984371 -1.1835938,1.08984371 -0.2578125,0 -0.4921875,-0.15234375 -0.4921875,-0.5859375 0,-0.19921875 0.1171875,-0.69140621 0.1992188,-1.03125001 l 0.2929687,-1.1953125 c 0.1171875,-0.3164062 0.3867188,-0.796875 0.84375,-0.796875 0.1523438,0 0.328125,0.023437 0.4570313,0.1171875 -0.328125,0.058594 -0.421875,0.3515625 -0.421875,0.4804688 0,0.1757812 0.1171875,0.328125 0.3398437,0.328125 0.2578125,0 0.5039063,-0.2226563 0.5039063,-0.5273438 0,-0.421875 -0.4570313,-0.6210937 -0.8789063,-0.6210937 -0.5390625,0 -0.84375,0.46875 -0.9492187,0.65625 -0.1757813,-0.4335938 -0.5742188,-0.65625 -0.9960938,-0.65625 -0.9609375,0 -1.48828124,1.1484375 -1.48828124,1.3828125 0,0.082031 0.0703125,0.1054687 0.12890625,0.1054687 0.0820313,0 0.10546875,-0.046875 0.12890625,-0.1054687 0.28125004,-0.8789063 0.86718754,-1.1601563 1.20703124,-1.1601563 0.2578125,0 0.4921875,0.1757813 0.4921875,0.5859375 0,0.328125 -0.3867187,1.7578125 -0.5039062,2.19140626 -0.070312,0.28125 -0.3398438,0.83203125 -0.8320313,0.83203125 -0.17578124,0 -0.36328124,-0.0585938 -0.45703124,-0.1171875 0.24609375,-0.0351562 0.42187504,-0.24609375 0.42187504,-0.48046875 0,-0.22265625 -0.16406254,-0.32812496 -0.33984379,-0.32812496 -0.2578125,0 -0.4921875,0.23437496 -0.4921875,0.53906246 0,0.43359375 0.48046875,0.609375 0.85546879,0.609375 0.5273437,0 0.8320312,-0.421875 0.9609375,-0.66796875 0.2226562,0.59765625 0.7617187,0.66796875 0.9960937,0.66796875 0.9726563,0 1.4765625,-1.16015626 1.4765625,-1.37109376 z m 0,0"
         style="fill:#000000;fill-opacity:1;fill-rule:nonzero;stroke:none" />
      <path
         id="path27"
         d="m 8.2486016,0.99494531 v -0.234375 H 7.9907891 c -0.6210938,0 -0.6210938,-0.0820313 -0.6210938,-0.26953125 V -2.8019297 c 0,-0.1757812 -0.023437,-0.1757812 -0.1992187,-0.1757812 -0.3984375,0.375 -1.0078125,0.375 -1.21875,0.375 v 0.234375 c 0.1523437,0 0.5507812,0 0.9023437,-0.1640625 v 3.02343746 c 0,0.1875 0,0.26953125 -0.609375,0.26953125 H 5.9868828 v 0.234375 c 0.328125,-0.0234375 0.796875,-0.0234375 1.125,-0.0234375 0.3398438,0 0.796875,0 1.1367188,0.0234375 z m 0,0"
         style="fill:#000000;fill-opacity:1;fill-rule:nonzero;stroke:none" />
      <path
         id="path28"
         d="m 18.57868,-3.1534922 c 0,-0.1992187 -0.199219,-0.1992187 -0.328125,-0.1992187 h -5.472657 c -0.140625,0 -0.328125,0 -0.328125,0.1992187 0,0.1875 0.175782,0.1875 0.292969,0.1875 h 5.542969 c 0.117187,0 0.292969,0 0.292969,-0.1875 z m 0,1.8164063 c 0,-0.1875 -0.175782,-0.1875 -0.292969,-0.1875 h -5.542969 c -0.117187,0 -0.292969,0 -0.292969,0.1875 0,0.1992187 0.1875,0.1992187 0.328125,0.1992187 h 5.472657 c 0.128906,0 0.328125,0 0.328125,-0.1992187 z m 6.946289,1.33593746 v -0.28125 h -0.28125 c -0.832031,0 -0.855469,-0.10546875 -0.855469,-0.43359375 V -5.7316172 c 0,-0.2226562 -0.01172,-0.234375 -0.234375,-0.234375 -0.5625,0.5625 -1.382812,0.5625 -1.664062,0.5625 v 0.28125 c 0.175781,0 0.714843,0 1.207031,-0.234375 v 4.64062501 c 0,0.328125 -0.03516,0.43359375 -0.867188,0.43359375 h -0.28125 v 0.28125 c 0.316407,-0.0234375 1.113282,-0.0234375 1.488282,-0.0234375 0.363281,0 1.171875,0 1.488281,0.0234375 z m 0,0"
         style="fill:#000000;fill-opacity:1;fill-rule:nonzero;stroke:none" />
    </g>
    <g
       id="g28"
       aria-label="x&#10;2&#10;=3"
       transform="matrix(1.3333333,0,0,1.3333333,334.80133,305.232)">
      <path
         id="path29"
         d="m 4.5581797,-1.2784922 c 0,-0.046875 -0.023437,-0.1171875 -0.1171875,-0.1171875 -0.09375,0 -0.1054688,0.035156 -0.1523438,0.1757813 -0.1875,0.64453121 -0.7148437,1.08984371 -1.1835937,1.08984371 -0.2578125,0 -0.4921875,-0.15234375 -0.4921875,-0.5859375 0,-0.19921875 0.1171875,-0.69140621 0.1992187,-1.03125001 l 0.2929688,-1.1953125 c 0.1171875,-0.3164062 0.3867187,-0.796875 0.84375,-0.796875 0.1523437,0 0.328125,0.023437 0.4570312,0.1171875 -0.328125,0.058594 -0.421875,0.3515625 -0.421875,0.4804688 0,0.1757812 0.1171875,0.328125 0.3398438,0.328125 0.2578125,0 0.5039062,-0.2226563 0.5039062,-0.5273438 0,-0.421875 -0.4570312,-0.6210937 -0.8789062,-0.6210937 -0.5390625,0 -0.84375,0.46875 -0.9492188,0.65625 -0.1757812,-0.4335938 -0.5742187,-0.65625 -0.9960937,-0.65625 -0.9609375,0 -1.48828126,1.1484375 -1.48828126,1.3828125 0,0.082031 0.0703125,0.1054687 0.12890625,0.1054687 0.0820313,0 0.10546875,-0.046875 0.12890625,-0.1054687 0.28124996,-0.8789063 0.86718746,-1.1601563 1.20703126,-1.1601563 0.2578125,0 0.4921875,0.1757813 0.4921875,0.5859375 0,0.328125 -0.3867188,1.7578125 -0.5039063,2.19140626 -0.070312,0.28125 -0.3398437,0.83203125 -0.8320312,0.83203125 -0.17578126,0 -0.36328126,-0.0585938 -0.45703126,-0.1171875 0.24609375,-0.0351562 0.42187496,-0.24609375 0.42187496,-0.48046875 0,-0.22265625 -0.16406246,-0.32812496 -0.33984371,-0.32812496 -0.2578125,0 -0.4921875,0.23437496 -0.4921875,0.53906246 0,0.43359375 0.48046875,0.609375 0.85546871,0.609375 0.5273438,0 0.8320313,-0.421875 0.9609375,-0.66796875 0.2226563,0.59765625 0.7617188,0.66796875 0.9960938,0.66796875 0.9726562,0 1.4765625,-1.16015626 1.4765625,-1.37109376 z m 0,0"
         style="fill:#000000;fill-opacity:1;fill-rule:nonzero;stroke:none" />
      <path
         id="path30"
         d="M 8.4341563,-0.11833594 H 8.2232188 c -0.023437,0.08203125 -0.082031,0.46875 -0.1640625,0.5390625 -0.046875,0.0351563 -0.5273438,0.0351563 -0.609375,0.0351563 h -1.125 l 0.7734375,-0.62109375 c 0.1992187,-0.1640625 0.7265625,-0.5390625 0.9140625,-0.7265625 0.1757812,-0.17578121 0.421875,-0.48046871 0.421875,-0.90234371 0,-0.7500001 -0.6679688,-1.1835938 -1.4765625,-1.1835938 -0.7617188,0 -1.3007813,0.5039062 -1.3007813,1.0664062 0,0.3046875 0.2578125,0.3398438 0.3164063,0.3398438 0.1523437,0 0.328125,-0.1054688 0.328125,-0.3164063 0,-0.140625 -0.082031,-0.328125 -0.3398438,-0.328125 0.1289063,-0.3046875 0.5039063,-0.5273436 0.9140625,-0.5273436 0.6210938,0 0.9609375,0.46875 0.9609375,0.9492187 0,0.421875 -0.28125,0.85546871 -0.703125,1.24218746 l -1.4179687,1.3007812 c -0.058594,0.0585938 -0.058594,0.0585938 -0.058594,0.24609375 H 8.258375 Z m 0,0"
         style="fill:#000000;fill-opacity:1;fill-rule:nonzero;stroke:none" />
      <path
         id="path31"
         d="m 18.579664,-3.1534922 c 0,-0.1992187 -0.199219,-0.1992187 -0.328125,-0.1992187 h -5.472656 c -0.140625,0 -0.328125,0 -0.328125,0.1992187 0,0.1875 0.175781,0.1875 0.292969,0.1875 h 5.542968 c 0.117188,0 0.292969,0 0.292969,-0.1875 z m 0,1.8164063 c 0,-0.1875 -0.175781,-0.1875 -0.292969,-0.1875 h -5.542968 c -0.117188,0 -0.292969,0 -0.292969,0.1875 0,0.1992187 0.1875,0.1992187 0.328125,0.1992187 h 5.472656 c 0.128906,0 0.328125,0 0.328125,-0.1992187 z m 7.294922,-0.1875 c 0,-0.7851563 -0.621094,-1.4414063 -1.488281,-1.6289063 0.832031,-0.3164062 1.230468,-0.9726562 1.230468,-1.59375 0,-0.6914062 -0.761718,-1.21875 -1.6875,-1.21875 -0.9375,0 -1.640625,0.5273438 -1.640625,1.2070313 0,0.2929687 0.199219,0.46875 0.457032,0.46875 0.269531,0 0.457031,-0.1875 0.457031,-0.4570313 0,-0.3046875 -0.222656,-0.4453125 -0.527344,-0.4453125 0.234375,-0.375 0.785156,-0.5507812 1.21875,-0.5507812 0.75,0 0.890625,0.5859375 0.890625,1.0078125 0,0.2695312 -0.05859,0.703125 -0.28125,1.0429687 -0.269531,0.3984375 -0.585937,0.421875 -0.84375,0.4335938 -0.234375,0.023437 -0.246094,0.023437 -0.316406,0.023437 -0.08203,0.011719 -0.152344,0.011719 -0.152344,0.1171875 0,0.1171875 0.07031,0.1171875 0.222656,0.1171875 h 0.421875 c 0.773438,0 1.125,0.6210937 1.125,1.4765625 0,1.14843746 -0.621093,1.46484371 -1.078125,1.46484371 -0.164062,0 -1.03125,-0.03515625 -1.441406,-0.703125 0.328125,0.046875 0.574219,-0.17578125 0.574219,-0.48046871 0,-0.3046875 -0.222656,-0.4921875 -0.480469,-0.4921875 -0.222656,0 -0.492187,0.140625 -0.492187,0.515625 0,0.79687496 0.832031,1.41796871 1.875,1.41796871 1.113281,0 1.957031,-0.80859375 1.957031,-1.72265571 z m 0,0"
         style="fill:#000000;fill-opacity:1;fill-rule:nonzero;stroke:none" />
    </g>
    <g
       id="g31"
       aria-label="Òåìè»åV(2,−1)"
       transform="matrix(1.3333333,0,0,1.3333333,209.82933,402.10533)">
      <path
         id="path32"
         d=""
         style="fill:#000000;fill-opacity:1;fill-rule:nonzero;stroke:none" />
      <path
         id="path33"
         d="m 42.529367,-6.0116172 c 0,-0.070312 -0.05859,-0.1054687 -0.117187,-0.1054687 -0.03516,0 -0.269532,0.023437 -0.738282,0.023437 -0.292968,0 -0.597656,-0.023437 -0.867187,-0.023437 -0.07031,0 -0.164063,0.011719 -0.164063,0.1523437 0,0.1054688 0.09375,0.1171875 0.128907,0.1171875 0.08203,0.011719 0.410156,0.035156 0.410156,0.2929688 0,0.070312 -0.02344,0.1289062 -0.07031,0.1992187 -0.03516,0.070312 -0.04687,0.1054688 -0.08203,0.1757813 l -2.8125,4.34765621 -0.679687,-4.74609371 c 0,-0.082031 0.07031,-0.2695313 0.621093,-0.2695313 0.105469,0 0.210938,0 0.210938,-0.1640625 0,-0.09375 -0.08203,-0.1054687 -0.140625,-0.1054687 -0.164063,0 -0.351563,0.011719 -0.515625,0.011719 l -0.5625,0.011719 c -0.164063,0 -0.421875,0 -0.492188,-0.011719 l -0.515625,-0.011719 c -0.03516,0 -0.164062,0 -0.164062,0.1523437 0,0.1171875 0.105469,0.1171875 0.210937,0.1171875 0.503907,0 0.503907,0.082031 0.539063,0.3046875 l 0.796875,5.50781251 c 0.02344,0.1640625 0.03516,0.234375 0.1875,0.234375 0.140625,0 0.199219,-0.0703125 0.257812,-0.17578125 l 3.269532,-5.08593746 c 0.375,-0.5742188 0.679687,-0.75 1.101562,-0.7851563 0.105469,-0.011719 0.1875,-0.011719 0.1875,-0.1640625 z m 0,0"
         style="fill:#000000;fill-opacity:1;fill-rule:nonzero;stroke:none" />
      <path
         id="path34"
         d="m 45.930734,2.1329141 c 0,-0.046875 -0.02344,-0.070312 -0.08203,-0.1289063 -1.160156,-1.06640624 -1.511719,-2.67187499 -1.511719,-4.2421875 0,-1.3945312 0.269532,-3.0820312 1.535157,-4.2773437 0.03516,-0.035156 0.05859,-0.070312 0.05859,-0.1054688 0,-0.070312 -0.04687,-0.1054687 -0.105468,-0.1054687 -0.105469,0 -0.914063,0.6445312 -1.40625,1.6289062 -0.421875,0.8554688 -0.644532,1.78125 -0.644532,2.8476563 0,0.6445312 0.08203,1.66406246 0.574219,2.73046871 0.527344,1.10156249 1.371094,1.74609379 1.476563,1.74609379 0.05859,0 0.105468,-0.035156 0.105468,-0.09375 z m 4.661133,-3.7148438 h -0.246094 c -0.02344,0.1171875 -0.09375,0.64453126 -0.210937,0.78515626 -0.04687,0.0820313 -0.667969,0.0820313 -0.84375,0.0820313 h -1.59375 l 0.878906,-0.84375006 c 1.476563,-1.2773437 2.015625,-1.7460937 2.015625,-2.6601562 0,-1.03125 -0.84375,-1.7460937 -1.945312,-1.7460937 -1.03125,0 -1.734375,0.8085937 -1.734375,1.6289062 0,0.4453125 0.386718,0.4921875 0.46875,0.4921875 0.199218,0 0.46875,-0.140625 0.46875,-0.46875 0,-0.2695312 -0.1875,-0.46875 -0.46875,-0.46875 -0.04687,0 -0.07031,0 -0.105469,0.011719 0.210937,-0.6328125 0.785156,-0.9257813 1.265625,-0.9257813 0.914062,0 1.230469,0.8554688 1.230469,1.4765625 0,0.9140625 -0.691407,1.6523437 -1.125,2.1210937 l -1.640625,1.76953131 c -0.09375,0.10546875 -0.09375,0.1171875 -0.09375,0.3281250025 h 3.433593 z m 0,0"
         style="fill:#000000;fill-opacity:1;fill-rule:nonzero;stroke:none" />
      <path
         id="path35"
         d="m 52.915109,-0.02333594 c 0,-0.55078125 -0.1875,-0.94921875 -0.574218,-0.94921875 -0.304688,0 -0.492188,0.234375 -0.492188,0.4921875 0,0.24609375 0.1875,0.4804687525 0.492188,0.4804687525 0.128906,0 0.269531,-0.0468750025 0.351562,-0.1406250025 0,0.29296875 0,1.03125 -0.65625,1.66406254 -0.05859,0.058594 -0.05859,0.058594 -0.05859,0.09375 0,0.070312 0.05859,0.1171875 0.117188,0.1171875 0.09375,0 0.820312,-0.703125 0.820312,-1.75781254 z m 0,0"
         style="fill:#000000;fill-opacity:1;fill-rule:nonzero;stroke:none" />
      <path
         id="path36"
         d="m 61.551828,-2.2381797 c 0,-0.1992187 -0.175781,-0.1992187 -0.316406,-0.1992187 h -4.980469 c -0.128906,0 -0.316406,0 -0.316406,0.1875 0,0.1992187 0.164062,0.1992187 0.316406,0.1992187 h 4.980469 c 0.128906,0 0.316406,0 0.316406,-0.1875 z m 0,0"
         style="fill:#000000;fill-opacity:1;fill-rule:nonzero;stroke:none" />
      <path
         id="path37"
         d="M 66.198312,1.015625e-4 V -0.28114844 h -0.28125 c -0.832031,0 -0.855468,-0.10546875 -0.855468,-0.43359375 V -5.7303672 c 0,-0.2226562 -0.01172,-0.234375 -0.234375,-0.234375 -0.5625,0.5625 -1.382813,0.5625 -1.664063,0.5625 v 0.28125 c 0.175781,0 0.714844,0 1.207031,-0.234375 v 4.64062501 c 0,0.328125 -0.03516,0.43359375 -0.867187,0.43359375 H 63.22175 V 1.015625e-4 C 63.538156,-0.02333594 64.335031,-0.02333594 64.710031,-0.02333594 c 0.363281,0 1.171875,0 1.488281,0.0234375025 z M 69.611398,-2.2498984 c 0,-0.7382813 -0.105468,-1.7226563 -0.574218,-2.71875 -0.527344,-1.1015625 -1.359375,-1.7578125 -1.464844,-1.7578125 -0.09375,0 -0.117188,0.070312 -0.117188,0.1054687 0,0.035156 0.02344,0.070312 0.08203,0.1289063 0.527343,0.46875 1.511718,1.6875 1.511718,4.2421875 0,1.27734371 -0.234375,3.07031246 -1.535156,4.2773437 -0.02344,0.023437 -0.05859,0.058594 -0.05859,0.1054688 0,0.023437 0.02344,0.09375 0.117188,0.09375 0.105469,0 0.914062,-0.6445313 1.394531,-1.61718754 C 69.400463,-0.24599219 69.6114,-1.1717734 69.6114,-2.2498984 Z m 0,0"
         style="fill:#000000;fill-opacity:1;fill-rule:nonzero;stroke:none" />
    </g>
    <g
       id="g37"
       aria-label="(0,3)"
       transform="matrix(1.3333333,0,0,1.3333333,34.914667,10.56)">
      <path
         id="path38"
         d="m 3.0581406,2.1317578 c 0,-0.046875 -0.023437,-0.070312 -0.082031,-0.1289062 -1.1601563,-1.06640629 -1.5117188,-2.67187504 -1.5117188,-4.2421875 0,-1.3945313 0.2695313,-3.0820313 1.5351563,-4.2773438 0.035156,-0.035156 0.058594,-0.070312 0.058594,-0.1054687 0,-0.070312 -0.046875,-0.1054688 -0.1054687,-0.1054688 -0.1054688,0 -0.9140625,0.6445313 -1.40625,1.6289063 -0.421875,0.8554687 -0.64453127,1.78125 -0.64453127,2.8476562 0,0.6445313 0.0820313,1.66406251 0.57421877,2.73046876 0.5273437,1.10156254 1.3710937,1.74609374 1.4765625,1.74609374 0.058594,0 0.1054687,-0.035156 0.1054682,-0.09375 z m 4.7666016,-5.0039062 c 0,-0.5976563 -0.023437,-1.3710938 -0.3398438,-2.0390625 -0.3984375,-0.84375 -1.078125,-1.0546875 -1.59375,-1.0546875 -0.5390625,0 -1.21875,0.2109375 -1.6171875,1.0664062 -0.2929687,0.6210938 -0.328125,1.3476563 -0.328125,2.0273438 0,0.5859375 0.011719,1.453125 0.3984375,2.16796871 0.421875,0.76171875 1.125,0.90234375 1.5351563,0.90234375 0.5859375,0 1.2421875,-0.2578125 1.6171875,-1.078125 0.2695312,-0.59765626 0.328125,-1.27734376 0.328125,-1.99218746 z M 7.0513047,-2.9776172 c 0,0.5507813 0,1.3125 -0.09375,1.8398438 -0.1875,1.01953121 -0.84375,1.11328121 -1.0664063,1.11328121 -0.2695312,0 -0.9140625,-0.12890625 -1.0898437,-1.13671871 -0.09375,-0.5390625 -0.09375,-1.3007813 -0.09375,-1.8164063 0,-0.609375 0,-1.3125 0.1171875,-1.8164062 0.1757812,-0.796875 0.75,-0.9492188 1.0546875,-0.9492188 0.3398437,0 0.9023437,0.1757813 1.078125,1.0078125 0.09375,0.4921875 0.09375,1.1953125 0.09375,1.7578125 z m 0,0"
         style="fill:#000000;fill-opacity:1;fill-rule:nonzero;stroke:none" />
      <path
         id="path39"
         d="m 10.042516,-0.02449219 c 0,-0.55078125 -0.1875004,-0.94921875 -0.5742191,-0.94921875 -0.3046875,0 -0.4921875,0.234375 -0.4921875,0.4921875 0,0.24609375 0.1875,0.48046875 0.4921875,0.48046875 0.1289062,0 0.2695312,-0.046875 0.3515625,-0.140625 0,0.29296875 0,1.03125 -0.65625,1.66406249 -0.058594,0.058594 -0.058594,0.058594 -0.058594,0.09375 0,0.070312 0.058594,0.1171875 0.1171875,0.1171875 0.09375,0 0.8203131,-0.703125 0.8203131,-1.75781249 z m 0,0"
         style="fill:#000000;fill-opacity:1;fill-rule:nonzero;stroke:none" />
      <path
         id="path40"
         d="m 16.502477,-1.5244922 c 0,-0.7851562 -0.621094,-1.4414062 -1.488282,-1.6289062 0.832032,-0.3164063 1.230469,-0.9726563 1.230469,-1.59375 0,-0.6914063 -0.761719,-1.21875 -1.6875,-1.21875 -0.9375,0 -1.640625,0.5273437 -1.640625,1.2070312 0,0.2929688 0.199219,0.46875 0.457031,0.46875 0.269532,0 0.457032,-0.1875 0.457032,-0.4570312 0,-0.3046875 -0.222657,-0.4453125 -0.527344,-0.4453125 0.234375,-0.375 0.785156,-0.5507813 1.21875,-0.5507813 0.75,0 0.890625,0.5859375 0.890625,1.0078125 0,0.2695313 -0.05859,0.703125 -0.28125,1.0429688 -0.269531,0.3984375 -0.585938,0.421875 -0.84375,0.4335937 -0.234375,0.023437 -0.246094,0.023437 -0.316406,0.023437 -0.08203,0.011719 -0.152344,0.011719 -0.152344,0.1171875 0,0.1171875 0.07031,0.1171875 0.222656,0.1171875 h 0.421875 c 0.773438,0 1.125,0.6210938 1.125,1.4765625 0,1.14843751 -0.621094,1.46484376 -1.078125,1.46484376 -0.164062,0 -1.03125,-0.03515625 -1.441406,-0.703125 0.328125,0.046875 0.574219,-0.17578125 0.574219,-0.48046876 0,-0.3046875 -0.222657,-0.4921875 -0.480469,-0.4921875 -0.222656,0 -0.492188,0.140625 -0.492188,0.515625 0,0.79687501 0.832032,1.41796876 1.875,1.41796876 1.113282,0 1.957032,-0.80859375 1.957032,-1.72265576 z M 19.564,-2.2510547 c 0,-0.7382812 -0.105469,-1.7226562 -0.574219,-2.71875 -0.527343,-1.1015625 -1.359375,-1.7578125 -1.464843,-1.7578125 -0.09375,0 -0.117188,0.070312 -0.117188,0.1054688 0,0.035156 0.02344,0.070312 0.08203,0.1289062 0.527344,0.46875 1.511719,1.6875 1.511719,4.2421875 0,1.27734376 -0.234375,3.07031251 -1.535156,4.2773438 -0.02344,0.023437 -0.05859,0.058594 -0.05859,0.1054687 0,0.023437 0.02344,0.09375 0.117188,0.09375 0.105468,0 0.914062,-0.6445312 1.394531,-1.61718749 C 19.353063,-0.24714844 19.564,-1.1729297 19.564,-2.2510547 Z m 0,0"
         style="fill:#000000;fill-opacity:1;fill-rule:nonzero;stroke:none" />
    </g>
    <g
       id="g40"
       aria-label="Ãðàôèêîííàôóíêöèjàòàf(x)=x&#10;2&#10;−4x+3"
       transform="matrix(1.3333333,0,0,1.3333333,86.870667,49.881333)">
      <path
         id="path41"
         d=""
         style="fill:#000000;fill-opacity:1;fill-rule:nonzero;stroke:none" />
      <path
         id="path42"
         d="m 135.69759,-6.9949844 c 0,-0.46875 -0.46875,-0.7148437 -0.94922,-0.7148437 -0.46875,0 -0.92578,0.3515625 -1.14844,0.7734375 -0.19922,0.3867187 -0.30469,0.7851562 -0.5625,2.2148437 h -0.72656 c -0.21094,0 -0.32813,0 -0.32813,0.1992188 0,0.1171875 0.0703,0.1171875 0.29297,0.1171875 h 0.70313 l -0.90235,4.66406248 c -0.1875,0.96093752 -0.35156,1.75781252 -0.90234,1.75781252 -0.0352,0 -0.35156,0 -0.53906,-0.2109375 0.55078,-0.035156 0.55078,-0.5390625 0.55078,-0.5390625 0,-0.2109375 -0.16407,-0.33984377 -0.375,-0.33984377 -0.21094,0 -0.53907,0.17578127 -0.53907,0.59765627 0,0.46875 0.48047,0.7148437 0.90235,0.7148437 1.125,0 1.58203,-2.00390622 1.69922,-2.55468747 l 0.79687,-4.08984373 h 0.92578 c 0.22266,0 0.30469,0 0.30469,-0.2109375 0,-0.1054688 -0.082,-0.1054688 -0.28125,-0.1054688 h -0.89062 l 0.44531,-2.2617187 c 0.0703,-0.2578125 0.30469,-0.515625 0.58594,-0.515625 0.23437,0 0.45703,0.1054687 0.57421,0.1992187 -0.43359,0.046875 -0.5625,0.3632813 -0.5625,0.5507813 0,0.2226562 0.16407,0.3515625 0.375,0.3515625 0.21094,0 0.55079,-0.1875 0.55079,-0.5976563 z m 0,0"
         style="fill:#000000;fill-opacity:1;fill-rule:nonzero;stroke:none" />
      <path
         id="path43"
         d="m 139.73177,2.6612656 c 0,-0.035156 0,-0.046875 -0.1875,-0.234375 -1.10157,-1.1132812 -1.71094,-2.91796872 -1.71094,-5.15625 0,-2.1210937 0.51562,-3.9492187 1.79297,-5.25 0.10547,-0.09375 0.10547,-0.1171875 0.10547,-0.1523437 0,-0.058594 -0.0586,-0.082031 -0.10547,-0.082031 -0.14063,0 -1.03125,0.7851563 -1.57032,1.8632813 -0.5625,1.1015625 -0.80859,2.2734375 -0.80859,3.6210937 0,0.9726563 0.15234,2.28515628 0.71484,3.45703128 0.65625,1.31250002 1.54688,2.02734372 1.66407,2.02734372 0.0469,0 0.10547,-0.023437 0.10547,-0.09375 z m 0,0"
         style="fill:#000000;fill-opacity:1;fill-rule:nonzero;stroke:none" />
      <path
         id="path44"
         d="m 145.60286,-1.5692031 c 0,-0.046875 -0.0469,-0.09375 -0.11719,-0.09375 -0.0937,0 -0.10547,0.058594 -0.14062,0.140625 -0.29297,0.96093748 -0.92578,1.41796873 -1.41797,1.41796873 -0.38672,0 -0.59766,-0.29296875 -0.59766,-0.73828125 0,-0.24609378 0.0469,-0.42187498 0.22266,-1.13671878 l 0.38672,-1.4882812 c 0.16406,-0.65625 0.52734,-1.1484375 1.04297,-1.1484375 0,0 0.32812,0 0.55078,0.1523437 -0.35157,0.058594 -0.48047,0.328125 -0.48047,0.5273438 0,0.2695312 0.21094,0.3515625 0.36328,0.3515625 0.32812,0 0.5625,-0.28125 0.5625,-0.5742188 0,-0.46875 -0.52734,-0.6679687 -0.99609,-0.6679687 -0.66797,0 -1.03125,0.65625 -1.13672,0.8671875 -0.2461,-0.8320313 -0.92578,-0.8671875 -1.125,-0.8671875 -1.11328,0 -1.71094,1.4296875 -1.71094,1.6757812 0,0.035156 0.0469,0.09375 0.11719,0.09375 0.0937,0 0.11718,-0.058594 0.14062,-0.1054687 0.36328,-1.21875 1.10156,-1.453125 1.41797,-1.453125 0.49219,0 0.59766,0.46875 0.59766,0.7265625 0,0.2460937 -0.0703,0.4921875 -0.19922,1.0195312 l -0.375,1.5 c -0.16406,0.65625003 -0.48047,1.26562503 -1.06641,1.26562503 -0.0469,0 -0.32812,0 -0.55078,-0.15234375 0.38672,-0.0703125 0.48047,-0.3984375 0.48047,-0.52734375 0,-0.22265623 -0.16406,-0.35156253 -0.375,-0.35156253 -0.26953,0 -0.55078,0.22265628 -0.55078,0.57421878 0,0.46875 0.51562,0.66796875 0.98437,0.66796875 0.52735,0 0.90235,-0.41015625 1.13672,-0.8671875 0.17578,0.65625 0.71485,0.8671875 1.125,0.8671875 1.11328,0 1.71094,-1.42968753 1.71094,-1.67578123 z m 0,0"
         style="fill:#000000;fill-opacity:1;fill-rule:nonzero;stroke:none" />
      <path
         id="path45"
         d="m 149.5345,-2.7293594 c 0,-0.8320312 -0.11719,-2.1914062 -0.72656,-3.4570312 -0.64453,-1.3125 -1.54688,-2.0273438 -1.66407,-2.0273438 -0.0469,0 -0.10546,0.023437 -0.10546,0.082031 0,0.035156 0,0.058594 0.1875,0.2460937 1.10156,1.1015625 1.71093,2.9179688 1.71093,5.1445313 0,2.13281248 -0.51562,3.9609375 -1.78125,5.25 -0.11718,0.1054687 -0.11718,0.1171875 -0.11718,0.1523437 0,0.070312 0.0586,0.09375 0.10546,0.09375 0.14063,0 1.04297,-0.796875 1.57032,-1.86328122 0.5625,-1.125 0.82031,-2.30859378 0.82031,-3.62109348 z m 11.87109,-1.0195312 c 0,-0.2109375 -0.1875,-0.2109375 -0.35156,-0.2109375 H 154.597 c -0.15234,0 -0.35156,0 -0.35156,0.1992187 0,0.2109375 0.1875,0.2109375 0.35156,0.2109375 h 6.45703 c 0.15234,0 0.35156,0 0.35156,-0.1992187 z m 0,2.0390625 c 0,-0.2109375 -0.1875,-0.2109375 -0.35156,-0.2109375 H 154.597 c -0.15234,0 -0.35156,0 -0.35156,0.1992187 0,0.2109375 0.1875,0.2109375 0.35156,0.2109375 h 6.45703 c 0.15234,0 0.35156,0 0.35156,-0.1992187 z m 0,0"
         style="fill:#000000;fill-opacity:1;fill-rule:nonzero;stroke:none" />
      <path
         id="path46"
         d="m 170.30305,-1.5692031 c 0,-0.046875 -0.0469,-0.09375 -0.11718,-0.09375 -0.0937,0 -0.10547,0.058594 -0.14063,0.140625 -0.29297,0.96093748 -0.92578,1.41796873 -1.41797,1.41796873 -0.38672,0 -0.59765,-0.29296875 -0.59765,-0.73828125 0,-0.24609378 0.0469,-0.42187498 0.22265,-1.13671878 l 0.38672,-1.4882812 c 0.16406,-0.65625 0.52735,-1.1484375 1.04297,-1.1484375 0,0 0.32813,0 0.55078,0.1523437 -0.35156,0.058594 -0.48047,0.328125 -0.48047,0.5273438 0,0.2695312 0.21094,0.3515625 0.36328,0.3515625 0.32813,0 0.5625,-0.28125 0.5625,-0.5742188 0,-0.46875 -0.52734,-0.6679687 -0.99609,-0.6679687 -0.66797,0 -1.03125,0.65625 -1.13672,0.8671875 -0.24609,-0.8320313 -0.92578,-0.8671875 -1.125,-0.8671875 -1.11328,0 -1.71094,1.4296875 -1.71094,1.6757812 0,0.035156 0.0469,0.09375 0.11719,0.09375 0.0937,0 0.11719,-0.058594 0.14063,-0.1054687 0.36328,-1.21875 1.10156,-1.453125 1.41797,-1.453125 0.49218,0 0.59765,0.46875 0.59765,0.7265625 0,0.2460937 -0.0703,0.4921875 -0.19922,1.0195312 l -0.375,1.5 c -0.16406,0.65625003 -0.48047,1.26562503 -1.0664,1.26562503 -0.0469,0 -0.32813,0 -0.55078,-0.15234375 0.38671,-0.0703125 0.48046,-0.3984375 0.48046,-0.52734375 0,-0.22265623 -0.16406,-0.35156253 -0.375,-0.35156253 -0.26953,0 -0.55078,0.22265628 -0.55078,0.57421878 0,0.46875 0.51563,0.66796875 0.98438,0.66796875 0.52734,0 0.90234,-0.41015625 1.13672,-0.8671875 0.17578,0.65625 0.71484,0.8671875 1.125,0.8671875 1.11328,0 1.71093,-1.42968753 1.71093,-1.67578123 z m 0,0"
         style="fill:#000000;fill-opacity:1;fill-rule:nonzero;stroke:none" />
      <path
         id="path47"
         d="m 174.80012,-5.3485 h -0.23437 c -0.0234,0.1523438 -0.082,0.5390625 -0.17578,0.6796875 -0.0469,0.058594 -0.63281,0.058594 -0.75,0.058594 h -1.3711 l 1.04297,-0.9375 c 0.11719,-0.1054688 0.44532,-0.3632813 0.5625,-0.46875 0.48047,-0.4453125 0.92578,-0.8671875 0.92578,-1.5585938 0,-0.9140625 -0.76171,-1.5117187 -1.72265,-1.5117187 -0.92578,0 -1.52344,0.703125 -1.52344,1.3828125 0,0.375 0.29297,0.4335937 0.39844,0.4335937 0.16406,0 0.39844,-0.1171875 0.39844,-0.4101562 0,-0.3984375 -0.375,-0.3984375 -0.46875,-0.3984375 0.22265,-0.5625 0.73828,-0.75 1.11328,-0.75 0.71484,0 1.07812,0.609375 1.07812,1.2539062 0,0.796875 -0.5625,1.3828125 -1.46484,2.3085938 l -0.96094,0.9960937 c -0.0937,0.082031 -0.0937,0.1054688 -0.0937,0.2929688 h 3.02344 z m 0,0"
         style="fill:#000000;fill-opacity:1;fill-rule:nonzero;stroke:none" />
      <path
         id="path48"
         d="m 185.75716,-2.7410781 c 0,-0.2109375 -0.21094,-0.2109375 -0.36329,-0.2109375 h -5.97656 c -0.15234,0 -0.35156,0 -0.35156,0.2109375 0,0.2226562 0.19922,0.2226562 0.35156,0.2226562 h 5.97656 c 0.15235,0 0.36329,0 0.36329,-0.2226562 z m 0,0"
         style="fill:#000000;fill-opacity:1;fill-rule:nonzero;stroke:none" />
      <path
         id="path49"
         d="m 194.17122,-1.8270156 v -0.3164063 h -1.10156 v -4.9921875 c 0,-0.1992187 0,-0.2578125 -0.16407,-0.2578125 -0.082,0 -0.11718,0 -0.19922,0.1289063 l -3.30468,5.1210937 v 0.3164063 h 2.88281 v 0.99609373 c 0,0.41015625 -0.0234,0.515625 -0.82031,0.515625 h -0.22266 v 0.31640625 c 0.25781,-0.0234375 1.125,-0.0234375 1.42969,-0.0234375 0.30469,0 1.18359,0 1.42969,0.0234375 v -0.31640625 h -0.21094 c -0.79688,0 -0.82031,-0.10546875 -0.82031,-0.515625 V -1.8270156 Z m -1.82813,-0.3164063 h -2.66015 l 2.66015,-4.1367187 z m 0,0"
         style="fill:#000000;fill-opacity:1;fill-rule:nonzero;stroke:none" />
      <path
         id="path50"
         d="m 199.7347,-1.5692031 c 0,-0.046875 -0.0469,-0.09375 -0.11719,-0.09375 -0.0937,0 -0.10547,0.058594 -0.14063,0.140625 -0.29297,0.96093748 -0.92578,1.41796873 -1.41797,1.41796873 -0.38671,0 -0.59765,-0.29296875 -0.59765,-0.73828125 0,-0.24609378 0.0469,-0.42187498 0.22265,-1.13671878 l 0.38672,-1.4882812 c 0.16407,-0.65625 0.52735,-1.1484375 1.04297,-1.1484375 0,0 0.32813,0 0.55078,0.1523437 -0.35156,0.058594 -0.48047,0.328125 -0.48047,0.5273438 0,0.2695312 0.21094,0.3515625 0.36329,0.3515625 0.32812,0 0.5625,-0.28125 0.5625,-0.5742188 0,-0.46875 -0.52735,-0.6679687 -0.9961,-0.6679687 -0.66797,0 -1.03125,0.65625 -1.13672,0.8671875 -0.24609,-0.8320313 -0.92578,-0.8671875 -1.125,-0.8671875 -1.11328,0 -1.71093,1.4296875 -1.71093,1.6757812 0,0.035156 0.0469,0.09375 0.11718,0.09375 0.0937,0 0.11719,-0.058594 0.14063,-0.1054687 0.36328,-1.21875 1.10156,-1.453125 1.41797,-1.453125 0.49218,0 0.59765,0.46875 0.59765,0.7265625 0,0.2460937 -0.0703,0.4921875 -0.19922,1.0195312 l -0.375,1.5 c -0.16406,0.65625003 -0.48046,1.26562503 -1.0664,1.26562503 -0.0469,0 -0.32813,0 -0.55078,-0.15234375 0.38672,-0.0703125 0.48047,-0.3984375 0.48047,-0.52734375 0,-0.22265623 -0.16407,-0.35156253 -0.375,-0.35156253 -0.26954,0 -0.55079,0.22265628 -0.55079,0.57421878 0,0.46875 0.51563,0.66796875 0.98438,0.66796875 0.52734,0 0.90234,-0.41015625 1.13672,-0.8671875 0.17578,0.65625 0.71484,0.8671875 1.125,0.8671875 1.11328,0 1.71094,-1.42968753 1.71094,-1.67578123 z m 0,0"
         style="fill:#000000;fill-opacity:1;fill-rule:nonzero;stroke:none" />
      <path
         id="path51"
         d="m 210.75032,-2.7293594 c 0,-0.2109375 -0.1875,-0.2109375 -0.35156,-0.2109375 h -3.02344 v -3.0234375 c 0,-0.1523437 0,-0.3515625 -0.19922,-0.3515625 -0.21094,0 -0.21094,0.1875 -0.21094,0.3515625 v 3.0234375 h -3.02343 c -0.15235,0 -0.35157,0 -0.35157,0.1992188 0,0.2109375 0.1875,0.2109375 0.35157,0.2109375 h 3.02343 v 3.02343748 c 0,0.15234375 0,0.3515625 0.19922,0.3515625 0.21094,0 0.21094,-0.1875 0.21094,-0.3515625 V -2.5301406 h 3.02344 c 0.15234,0 0.35156,0 0.35156,-0.1992188 z m 7.9541,0.8554688 c 0,-1.0078125 -0.80859,-1.7929688 -1.86328,-1.9804688 0.94922,-0.2695312 1.57031,-1.078125 1.57031,-1.9335937 0,-0.8671875 -0.90234,-1.5 -1.96875,-1.5 -1.08984,0 -1.89843,0.6679687 -1.89843,1.4765625 0,0.4335937 0.33984,0.515625 0.5039,0.515625 0.22266,0 0.49219,-0.1640625 0.49219,-0.4921875 0,-0.3515625 -0.26953,-0.5039063 -0.50391,-0.5039063 -0.0703,0 -0.0937,0 -0.1289,0.011719 0.42187,-0.7382813 1.45312,-0.7382813 1.5,-0.7382813 0.36328,0 1.07812,0.1640625 1.07812,1.2304688 0,0.2109375 -0.0351,0.8203125 -0.35156,1.3007812 -0.32813,0.4804688 -0.70313,0.515625 -0.99609,0.5273438 l -0.32813,0.023437 c -0.1875,0.011719 -0.23437,0.023437 -0.23437,0.1289062 0,0.1054688 0.0586,0.1054688 0.25781,0.1054688 h 0.5039 c 0.92579,0 1.34766,0.7617187 1.34766,1.8164062 0,1.44140628 -0.75,1.81640628 -1.27734,1.81640628 -0.52735,0 -1.42969,-0.24609375 -1.7461,-0.97265628 0.35157,0.0585938 0.66797,-0.140625 0.66797,-0.5390625 0,-0.3164062 -0.23437,-0.5273437 -0.53906,-0.5273437 -0.25781,0 -0.55078,0.1523437 -0.55078,0.5625 0,0.97265623 0.98437,1.78124998 2.1914,1.78124998 1.3125,0 2.27344,-0.99609375 2.27344,-2.10937468 z m 0,0"
         style="fill:#000000;fill-opacity:1;fill-rule:nonzero;stroke:none" />
    </g>
    <path
       id="path52"
       d=""
       style="fill:#000000;fill-opacity:1;fill-rule:nonzero;stroke:none"
       aria-label="Êîîðäèíàòè:"
       transform="matrix(1.3333333,0,0,1.3333333,1.6,96.417333)" />
    <g
       id="g52"
       aria-label="•Òåìè»å:(2,−1)"
       transform="matrix(1.3333333,0,0,1.3333333,40.566667,129.568)">
      <path
         id="path53"
         d="m 3.7498047,-1.9933828 c 0,-0.9140625 -0.7265625,-1.6523438 -1.640625,-1.6523438 -0.9023438,0 -1.64062501,0.7382813 -1.64062501,1.6523438 0,0.9140625 0.73828121,1.65234374 1.64062501,1.65234374 0.9140625,0 1.640625,-0.73828124 1.640625,-1.65234374 z m 0,0"
         style="fill:#000000;fill-opacity:1;fill-rule:nonzero;stroke:none" />
      <path
         id="path54"
         d=""
         style="fill:#000000;fill-opacity:1;fill-rule:nonzero;stroke:none" />
      <path
         id="path55"
         d="m 44.794727,1.8972422 c 0,-0.035156 -0.01172,-0.046875 -0.105469,-0.140625 -1.101563,-1.03125001 -1.371094,-2.51953126 -1.371094,-3.75 0,-2.296875 0.949219,-3.375 1.359375,-3.7382813 0.105469,-0.1054687 0.117188,-0.1054687 0.117188,-0.1523437 0,-0.035156 -0.03516,-0.09375 -0.105469,-0.09375 -0.128906,0 -0.527344,0.4101562 -0.597656,0.4804687 -1.066407,1.1132813 -1.289063,2.5429688 -1.289063,3.5039063 0,1.78124999 0.75,3.2226562 1.828125,3.984375 0.07031,0 0.164063,0 0.164063,-0.09375 z m 4.277343,-3.328125 h -0.246093 c -0.02344,0.1640625 -0.08203,0.56249999 -0.175782,0.71484374 -0.04687,0.0585938 -0.65625,0.0585938 -0.785156,0.0585938 H 46.44707 l 1.078125,-0.97265624 c 0.128907,-0.1171875 0.457032,-0.3750001 0.585938,-0.4921876 0.492187,-0.4570312 0.960937,-0.890625 0.960937,-1.6171875 0,-0.9492187 -0.796875,-1.5585937 -1.792968,-1.5585937 -0.949219,0 -1.582032,0.7265625 -1.582032,1.4296875 0,0.3984375 0.316407,0.4453125 0.421875,0.4453125 0.164063,0 0.410157,-0.1171875 0.410157,-0.421875 0,-0.4101562 -0.398438,-0.4101562 -0.492188,-0.4101562 0.234375,-0.5859375 0.773438,-0.7851563 1.160156,-0.7851563 0.738282,0 1.125,0.6328125 1.125,1.3007812 0,0.8320313 -0.585937,1.4296875 -1.523437,2.4023439 l -1.007813,1.03124994 c -0.09375,0.09375 -0.09375,0.10546875 -0.09375,0.3046875 h 3.152344 z m 0,0"
         style="fill:#000000;fill-opacity:1;fill-rule:nonzero;stroke:none" />
      <path
         id="path56"
         d="m 51.219531,-0.02463281 c 0,-0.515625 -0.1875,-0.85546875 -0.539062,-0.85546875 -0.28125,0 -0.433594,0.22265625 -0.433594,0.43359375 0,0.22265625 0.140625,0.4453125 0.445313,0.4453125 0.1875,0 0.304687,-0.1171875 0.304687,-0.1171875 0,0.515625 -0.105469,0.97265625 -0.609375,1.46484371 -0.02344,0.023437 -0.04687,0.035156 -0.04687,0.082031 0,0.058594 0.07031,0.1054687 0.128906,0.1054687 0.09375,0 0.75,-0.62109371 0.75,-1.55859371 z m 0,0"
         style="fill:#000000;fill-opacity:1;fill-rule:nonzero;stroke:none" />
      <path
         id="path57"
         d="m 59.132617,-1.9933828 c 0,-0.1875 -0.164062,-0.1875 -0.28125,-0.1875 h -4.582031 c -0.117188,0 -0.28125,0 -0.28125,0.1875 0,0.1875 0.164062,0.1875 0.28125,0.1875 h 4.582031 c 0.117188,0 0.28125,0 0.28125,-0.1875 z m 0,0"
         style="fill:#000000;fill-opacity:1;fill-rule:nonzero;stroke:none" />
      <path
         id="path58"
         d="m 63.42168,-0.00119531 v -0.2578125 h -0.28125 c -0.75,0 -0.773438,-0.10546875 -0.773438,-0.3984375 V -5.0754141 c 0,-0.2226562 -0.02344,-0.2226562 -0.234375,-0.2226562 -0.328125,0.3164062 -0.75,0.5039062 -1.511719,0.5039062 v 0.2695313 c 0.222657,0 0.644532,0 1.113282,-0.2226563 v 4.08984379 c 0,0.29296875 -0.02344,0.3984375 -0.785157,0.3984375 h -0.28125 v 0.2578125 c 0.328125,-0.0234375 1.019532,-0.0234375 1.371094,-0.0234375 0.363281,0 1.054688,0 1.382813,0.0234375 z m 3.131836,-1.99218749 c 0,-0.7617188 -0.128907,-1.6640625 -0.621094,-2.6015625 -0.386719,-0.7382813 -1.113281,-1.3828125 -1.253906,-1.3828125 -0.08203,0 -0.105469,0.058594 -0.105469,0.09375 0,0.035156 0,0.046875 0.09375,0.140625 1.113281,1.0664062 1.371094,2.5195312 1.371094,3.75 0,2.28515624 -0.949219,3.375 -1.359375,3.7382812 -0.105469,0.1054688 -0.105469,0.1054688 -0.105469,0.1523438 0,0.035156 0.02344,0.09375 0.105469,0.09375 0.128906,0 0.527343,-0.4101563 0.585937,-0.4804688 1.066406,-1.11328121 1.289063,-2.5429687 1.289063,-3.5039062 z m 0,0"
         style="fill:#000000;fill-opacity:1;fill-rule:nonzero;stroke:none" />
    </g>
    <g
       id="g58"
       aria-label="•Íóëè:x&#10;1&#10;=1,x&#10;2&#10;=3"
       transform="matrix(1.3333333,0,0,1.3333333,40.566667,158.14933)">
      <path
         id="path59"
         d="m 3.7498047,-1.9928594 c 0,-0.9140625 -0.7265625,-1.6523437 -1.640625,-1.6523437 -0.9023438,0 -1.64062501,0.7382812 -1.64062501,1.6523437 0,0.9140625 0.73828121,1.65234378 1.64062501,1.65234378 0.9140625,0 1.640625,-0.73828128 1.640625,-1.65234378 z m 0,0"
         style="fill:#000000;fill-opacity:1;fill-rule:nonzero;stroke:none" />
      <path
         id="path60"
         d=""
         style="fill:#000000;fill-opacity:1;fill-rule:nonzero;stroke:none" />
      <path
         id="path61"
         d="m 36.395313,-1.1373906 c 0,-0.082031 -0.05859,-0.1054688 -0.117188,-0.1054688 -0.09375,0 -0.117187,0.058594 -0.140625,0.1289063 -0.152344,0.53906248 -0.609375,0.97265623 -1.078125,0.97265623 -0.257812,0 -0.445312,-0.17578125 -0.445312,-0.515625 0,-0.15234375 0.04687,-0.33984375 0.152343,-0.78515623 l 0.269532,-1.0898438 c 0.117187,-0.421875 0.398437,-0.7617187 0.75,-0.7617187 0.04687,0 0.246093,0 0.421875,0.1171875 -0.351563,0.082031 -0.375,0.3984375 -0.375,0.421875 0,0.1757812 0.140625,0.3046875 0.316406,0.3046875 0.175781,0 0.445312,-0.140625 0.445312,-0.4804688 0,-0.4570312 -0.503906,-0.5859375 -0.796875,-0.5859375 -0.375,0 -0.679687,0.2695313 -0.855468,0.5742188 -0.175782,-0.421875 -0.597657,-0.5742188 -0.925782,-0.5742188 -0.867187,0 -1.347656,0.9960938 -1.347656,1.21875 0,0.070312 0.05859,0.1054688 0.117188,0.1054688 0.09375,0 0.105468,-0.035156 0.140625,-0.140625 0.175781,-0.5742188 0.65625,-0.9609375 1.066406,-0.9609375 0.316406,0 0.46875,0.2226562 0.46875,0.515625 0,0.1523437 -0.09375,0.5273437 -0.164063,0.7734375 l -0.269531,1.08984373 c -0.105469,0.43359375 -0.398437,0.7734375 -0.761719,0.7734375 -0.02344,0 -0.234375,0 -0.398437,-0.1171875 0.363281,-0.0820313 0.363281,-0.421875 0.363281,-0.421875 0,-0.1875 -0.140625,-0.3046875 -0.316406,-0.3046875 -0.222656,0 -0.445313,0.1875 -0.445313,0.4921875 0,0.36328125 0.386719,0.57421875 0.796875,0.57421875 0.421875,0 0.714844,-0.31640625 0.855469,-0.57421875 0.175781,0.38671875 0.539063,0.57421875 0.925781,0.57421875 0.867188,0 1.347657,-0.99609375 1.347657,-1.21874998 z m 0,0"
         style="fill:#000000;fill-opacity:1;fill-rule:nonzero;stroke:none" />
      <path
         id="path62"
         d="M 40.001758,1.10675 V 0.872375 h -0.257813 c -0.621093,0 -0.621093,-0.0820313 -0.621093,-0.26953125 V -2.690125 c 0,-0.1757812 -0.02344,-0.1757812 -0.199219,-0.1757812 -0.398438,0.375 -1.007813,0.375 -1.21875,0.375 v 0.234375 c 0.152344,0 0.550781,0 0.902344,-0.1640625 v 3.02343745 c 0,0.1875 0,0.26953125 -0.609375,0.26953125 H 37.740039 V 1.10675 c 0.328125,-0.023437 0.796875,-0.023437 1.125,-0.023437 0.339844,0 0.796875,0 1.136719,0.023437 z m 0,0"
         style="fill:#000000;fill-opacity:1;fill-rule:nonzero;stroke:none" />
      <path
         id="path63"
         d="m 49.587695,-2.8366094 c 0,-0.1875 -0.1875,-0.1875 -0.316406,-0.1875 h -5.003906 c -0.128906,0 -0.316406,0 -0.316406,0.1875 0,0.1875 0.164062,0.1875 0.28125,0.1875 h 5.074218 c 0.117188,0 0.28125,0 0.28125,-0.1875 z m 0,1.6875 c 0,-0.1875 -0.164062,-0.1875 -0.28125,-0.1875 h -5.074218 c -0.117188,0 -0.28125,0 -0.28125,0.1875 0,0.18750003 0.1875,0.18750003 0.316406,0.18750003 h 5.003906 c 0.128906,0 0.316406,0 0.316406,-0.18750003 z m 6.395508,1.148437525 V -0.25848437 h -0.28125 c -0.75,0 -0.773437,-0.10546875 -0.773437,-0.3984375 V -5.0748906 c 0,-0.2226563 -0.02344,-0.2226563 -0.234375,-0.2226563 -0.328125,0.3164063 -0.75,0.5039063 -1.511719,0.5039063 v 0.2695312 c 0.222656,0 0.644531,0 1.113281,-0.2226562 v 4.08984373 c 0,0.29296875 -0.02344,0.3984375 -0.785156,0.3984375 h -0.28125 v 0.257812495 c 0.328125,-0.023437495 1.019531,-0.023437495 1.371094,-0.023437495 0.363281,0 1.054687,0 1.382812,0.023437495 z m 0,0"
         style="fill:#000000;fill-opacity:1;fill-rule:nonzero;stroke:none" />
      <path
         id="path64"
         d="m 58.365039,-0.02410937 c 0,-0.515625 -0.1875,-0.85546875 -0.539062,-0.85546875 -0.28125,0 -0.433594,0.22265625 -0.433594,0.43359375 0,0.22265625 0.140625,0.445312495 0.445312,0.445312495 0.1875,0 0.304688,-0.117187495 0.304688,-0.117187495 0,0.515625 -0.105469,0.97265625 -0.609375,1.46484377 -0.02344,0.023437 -0.04687,0.035156 -0.04687,0.082031 0,0.058594 0.07031,0.1054688 0.128906,0.1054688 0.09375,0 0.75,-0.62109377 0.75,-1.55859377 z m 6.234375,-1.11328123 c 0,-0.082031 -0.05859,-0.1054688 -0.117187,-0.1054688 -0.09375,0 -0.117188,0.058594 -0.140625,0.1289063 -0.152344,0.53906248 -0.609375,0.97265623 -1.078125,0.97265623 -0.257813,0 -0.445313,-0.17578125 -0.445313,-0.515625 0,-0.15234375 0.04687,-0.33984375 0.152344,-0.78515623 l 0.269531,-1.0898438 c 0.117188,-0.421875 0.398438,-0.7617187 0.75,-0.7617187 0.04687,0 0.246094,0 0.421875,0.1171875 -0.351562,0.082031 -0.375,0.3984375 -0.375,0.421875 0,0.1757812 0.140625,0.3046875 0.316406,0.3046875 0.175782,0 0.445313,-0.140625 0.445313,-0.4804688 0,-0.4570312 -0.503906,-0.5859375 -0.796875,-0.5859375 -0.375,0 -0.679688,0.2695313 -0.855469,0.5742188 -0.175781,-0.421875 -0.597656,-0.5742188 -0.925781,-0.5742188 -0.867188,0 -1.347656,0.9960938 -1.347656,1.21875 0,0.070312 0.05859,0.1054688 0.117187,0.1054688 0.09375,0 0.105469,-0.035156 0.140625,-0.140625 0.175781,-0.5742188 0.65625,-0.9609375 1.066406,-0.9609375 0.316407,0 0.46875,0.2226562 0.46875,0.515625 0,0.1523437 -0.09375,0.5273437 -0.164062,0.7734375 l -0.269531,1.08984373 c -0.105469,0.43359375 -0.398438,0.7734375 -0.761719,0.7734375 -0.02344,0 -0.234375,0 -0.398438,-0.1171875 0.363282,-0.0820313 0.363282,-0.421875 0.363282,-0.421875 0,-0.1875 -0.140625,-0.3046875 -0.316407,-0.3046875 -0.222656,0 -0.445312,0.1875 -0.445312,0.4921875 0,0.36328125 0.386719,0.57421875 0.796875,0.57421875 0.421875,0 0.714844,-0.31640625 0.855469,-0.57421875 0.175781,0.38671875 0.539062,0.57421875 0.925781,0.57421875 0.867187,0 1.347656,-0.99609375 1.347656,-1.21874998 z m 0,0"
         style="fill:#000000;fill-opacity:1;fill-rule:nonzero;stroke:none" />
      <path
         id="path65"
         d="m 68.396289,-0.00653125 h -0.210937 c -0.02344,0.08203125 -0.08203,0.46875 -0.164063,0.5390625 -0.04687,0.0351563 -0.527344,0.0351563 -0.609375,0.0351563 h -1.125 l 0.773438,-0.62109375 c 0.199218,-0.1640625 0.726562,-0.5390625 0.914062,-0.7265625 0.175781,-0.17578125 0.421875,-0.4804687 0.421875,-0.9023437 0,-0.7500001 -0.667969,-1.1835937 -1.476562,-1.1835937 -0.761719,0 -1.300782,0.5039061 -1.300782,1.0664062 0,0.3046875 0.257813,0.3398438 0.316407,0.3398438 0.152343,0 0.328125,-0.1054688 0.328125,-0.3164063 0,-0.140625 -0.08203,-0.328125 -0.339844,-0.328125 0.128906,-0.3046875 0.503906,-0.5273437 0.914062,-0.5273437 0.621094,0 0.960938,0.46875 0.960938,0.9492187 0,0.421875 -0.28125,0.8554687 -0.703125,1.24218745 l -1.417969,1.3007812 C 65.618945,0.91925 65.618945,0.91925 65.618945,1.10675 h 2.601563 z m 0,0"
         style="fill:#000000;fill-opacity:1;fill-rule:nonzero;stroke:none" />
      <path
         id="path66"
         d="m 77.794727,-2.8366094 c 0,-0.1875 -0.1875,-0.1875 -0.316407,-0.1875 h -5.003906 c -0.128906,0 -0.316406,0 -0.316406,0.1875 0,0.1875 0.164062,0.1875 0.28125,0.1875 h 5.074219 c 0.117187,0 0.28125,0 0.28125,-0.1875 z m 0,1.6875 c 0,-0.1875 -0.164063,-0.1875 -0.28125,-0.1875 h -5.074219 c -0.117188,0 -0.28125,0 -0.28125,0.1875 0,0.18750003 0.1875,0.18750003 0.316406,0.18750003 h 5.003906 c 0.128907,0 0.316407,0 0.316407,-0.18750003 z m 6.697265,-0.2109375 c 0,-0.6679687 -0.515625,-1.265625 -1.335937,-1.4414062 0.632812,-0.2226563 1.101562,-0.7734375 1.101562,-1.40625 0,-0.6328125 -0.714844,-1.0898438 -1.546875,-1.0898438 -0.855469,0 -1.5,0.4570313 -1.5,1.0664063 0,0.2929687 0.199219,0.421875 0.410156,0.421875 0.246094,0 0.410157,-0.1757813 0.410157,-0.4101563 0,-0.2929687 -0.257813,-0.3984375 -0.433594,-0.4101562 0.339844,-0.4335938 0.949219,-0.46875 1.089844,-0.46875 0.210937,0 0.808593,0.070312 0.808593,0.890625 0,0.5625 -0.222656,0.890625 -0.339843,1.0195312 -0.234375,0.2460938 -0.421875,0.2578125 -0.902344,0.2929688 -0.152344,0.011719 -0.222656,0.023437 -0.222656,0.1171875 0,0.1171875 0.07031,0.1171875 0.210937,0.1171875 h 0.398438 c 0.632812,0 1.03125,0.4570312 1.03125,1.3007812 0,0.99609378 -0.574219,1.28906253 -0.996094,1.28906253 -0.433594,0 -1.03125,-0.1640625 -1.3125,-0.5859375 0.292969,0 0.492187,-0.17578125 0.492187,-0.44531253 0,-0.2578125 -0.1875,-0.4335937 -0.445312,-0.4335937 -0.210938,0 -0.433594,0.1289062 -0.433594,0.4570312 0,0.75000003 0.808594,1.24218753 1.722656,1.24218753 1.054688,0 1.792969,-0.7265625 1.792969,-1.52343753 z m 0,0"
         style="fill:#000000;fill-opacity:1;fill-rule:nonzero;stroke:none" />
    </g>
    <path
       id="path67"
       d=""
       style="fill:#000000;fill-opacity:1;fill-rule:nonzero;stroke:none"
       aria-label="Ïîâðøèíà"
       transform="matrix(1.3333333,0,0,1.3333333,225.30133,316.32667)" />
  </g>
</svg>
